<?xml version="1.0" encoding="UTF-8"?>
<svg width="2560px" height="600px" viewBox="0 0 2560 600" version="1.1" xmlns="http://www.w3.org/2000/svg" xmlns:xlink="http://www.w3.org/1999/xlink">
    <!-- Generator: Sketch 54.1 (76490) - https://sketchapp.com -->
    <title>形状结合</title>
    <desc>Created with Sketch.</desc>
    <g id="pc_2560_realmeXT" stroke="none" stroke-width="1" fill="none" fill-rule="evenodd">
        <g id="pc_1920_realmeXT" transform="translate(0.000000, -2504.000000)" fill="#000000">
            <g id="03_title" transform="translate(0.000000, 2504.000000)">
                <path d="M0,0 L2560,0 L2560,600 L0,600 L0,0 Z M924.14,247.8 L924.14,177 L910.34,177 L910.34,261 L958.34,261 L958.34,247.8 L924.14,247.8 Z M977.9,236.52 L1025.66,236.52 C1025.9,234.84 1026.14,232.92 1026.14,231.12 C1026.14,213.84 1013.9,199.44 996.02,199.44 C977.18,199.44 964.34,213.24 964.34,231 C964.34,249 977.18,262.56 996.98,262.56 C1008.74,262.56 1017.74,257.64 1023.26,249.48 L1012.58,243.24 C1009.7,247.44 1004.3,250.68 997.1,250.68 C987.5,250.68 979.94,245.88 977.9,236.52 Z M977.78,225.96 C979.58,216.96 986.18,211.2 995.9,211.2 C1003.7,211.2 1011.26,215.64 1013.06,225.96 L977.78,225.96 Z M1085.06,201 L1085.06,209.52 C1080.5,203.28 1073.42,199.44 1064.06,199.44 C1047.74,199.44 1034.18,213.12 1034.18,231 C1034.18,248.76 1047.74,262.56 1064.06,262.56 C1073.42,262.56 1080.5,258.72 1085.06,252.36 L1085.06,261 L1098.02,261 L1098.02,201 L1085.06,201 Z M1066.1,250.2 C1055.3,250.2 1047.14,242.16 1047.14,231 C1047.14,219.84 1055.3,211.8 1066.1,211.8 C1076.9,211.8 1085.06,219.84 1085.06,231 C1085.06,242.16 1076.9,250.2 1066.1,250.2 Z M1147.1,199.44 C1137.74,199.44 1130.66,203.28 1126.1,209.64 L1126.1,201 L1113.14,201 L1113.14,285 L1126.1,285 L1126.1,252.48 C1130.66,258.72 1137.74,262.56 1147.1,262.56 C1163.42,262.56 1176.98,248.88 1176.98,231 C1176.98,213.24 1163.42,199.44 1147.1,199.44 Z M1145.06,250.2 C1134.26,250.2 1126.1,242.16 1126.1,231 C1126.1,219.84 1134.26,211.8 1145.06,211.8 C1155.86,211.8 1164.02,219.84 1164.02,231 C1164.02,242.16 1155.86,250.2 1145.06,250.2 Z M1252.22,213.48 L1252.22,201 L1237.34,201 L1237.34,184.2 L1224.38,188.04 L1224.38,201 L1213.34,201 L1213.34,213.48 L1224.38,213.48 L1224.38,242.28 C1224.38,257.88 1232.3,263.4 1252.22,261 L1252.22,249.36 C1242.38,249.84 1237.34,249.96 1237.34,242.28 L1237.34,213.48 L1252.22,213.48 Z M1292.9,262.56 C1310.54,262.56 1324.58,248.76 1324.58,231 C1324.58,213.12 1310.54,199.44 1292.9,199.44 C1275.38,199.44 1261.22,213.12 1261.22,231 C1261.22,248.76 1275.38,262.56 1292.9,262.56 Z M1292.9,249.96 C1282.34,249.96 1274.18,241.92 1274.18,231 C1274.18,220.08 1282.34,212.04 1292.9,212.04 C1303.46,212.04 1311.62,220.08 1311.62,231 C1311.62,241.92 1303.46,249.96 1292.9,249.96 Z M1391.54,205.2 L1389.98,205.2 L1409.18,177 L1393.46,177 L1366.82,216.96 C1363.58,221.64 1361.78,227.4 1361.78,233.88 C1361.78,250.8 1374.02,262.56 1391.54,262.56 C1408.94,262.56 1421.18,250.8 1421.18,233.88 C1421.18,216.96 1408.94,205.2 1391.54,205.2 Z M1391.54,249.48 C1382.3,249.48 1375.58,243.48 1375.58,233.88 C1375.58,224.28 1382.3,218.28 1391.54,218.28 C1400.66,218.28 1407.38,224.28 1407.38,233.88 C1407.38,243.36 1400.66,249.48 1391.54,249.48 Z M1491.74,233.04 L1482.14,233.04 L1482.14,211.2 L1468.22,211.2 L1468.22,233.04 L1441.94,233.04 L1470.86,177 L1455.86,177 L1426.94,233.04 L1426.94,245.88 L1468.22,245.88 L1468.22,261 L1482.14,261 L1482.14,245.88 L1491.74,245.88 L1491.74,233.04 Z M1582.58,177 L1567.82,177 L1542.38,219 L1517.06,177 L1502.18,177 L1502.18,261 L1515.98,261 L1515.98,201 L1541.54,243.36 L1543.22,243.36 L1568.78,201.12 L1568.78,261 L1582.58,261 L1582.58,177 Z M1630.34,177 L1599.38,177 L1599.38,261 L1613.18,261 L1613.18,232.2 L1630.34,232.2 C1646.18,232.2 1658.18,220.08 1658.18,204.6 C1658.18,189 1646.18,177 1630.34,177 Z M1630.34,219.24 L1613.18,219.24 L1613.18,189.96 L1630.34,189.96 C1638.5,189.96 1644.38,196.08 1644.38,204.6 C1644.38,213 1638.5,219.24 1630.34,219.24 Z M869.12,379 C869.12,354.64 849.68,335.44 825.56,335.44 C801.56,335.44 782,354.64 782,379 C782,403.36 801.56,422.56 825.56,422.56 C833.72,422.56 841.4,420.28 848,416.44 L857.24,425.92 L866.96,417.16 L858.08,408.04 C864.92,400.48 869.12,390.28 869.12,379 Z M825.56,409.12 C809,409.12 795.8,396.28 795.8,379 C795.8,361.72 809,348.88 825.56,348.88 C842.12,348.88 855.32,361.72 855.32,379 C855.32,386.56 852.8,393.16 848.6,398.32 L832.52,381.88 L822.8,390.64 L838.16,406.36 C834.32,408.16 830.12,409.12 825.56,409.12 Z M921.92,361 L921.92,393.16 C921.92,405.4 915.2,410.44 906.68,410.44 C898.52,410.44 893.24,405.64 893.24,396.52 L893.24,361 L880.28,361 L880.28,397.84 C880.28,413.44 889.88,422.56 903.32,422.56 C911.48,422.56 917.96,419.56 921.92,413.32 L921.92,421 L934.88,421 L934.88,361 L921.92,361 Z M997.52,361 L997.52,369.52 C992.96,363.28 985.88,359.44 976.52,359.44 C960.2,359.44 946.64,373.12 946.64,391 C946.64,408.76 960.2,422.56 976.52,422.56 C985.88,422.56 992.96,418.72 997.52,412.36 L997.52,421 L1010.48,421 L1010.48,361 L997.52,361 Z M978.56,410.2 C967.76,410.2 959.6,402.16 959.6,391 C959.6,379.84 967.76,371.8 978.56,371.8 C989.36,371.8 997.52,379.84 997.52,391 C997.52,402.16 989.36,410.2 978.56,410.2 Z M1073.12,337 L1073.12,369.52 C1068.56,363.28 1061.48,359.44 1052.12,359.44 C1035.8,359.44 1022.24,373.12 1022.24,391 C1022.24,408.76 1035.8,422.56 1052.12,422.56 C1061.48,422.56 1068.56,418.72 1073.12,412.36 L1073.12,421 L1086.08,421 L1086.08,337 L1073.12,337 Z M1054.16,410.2 C1043.36,410.2 1035.2,402.16 1035.2,391 C1035.2,379.84 1043.36,371.8 1054.16,371.8 C1064.96,371.8 1073.12,379.84 1073.12,391 C1073.12,402.16 1064.96,410.2 1054.16,410.2 Z M1171.76,422.56 C1187.24,422.56 1200.92,414.64 1207.88,402.4 L1195.88,395.56 C1191.56,403.84 1182.32,409.12 1171.76,409.12 C1153.64,409.12 1141.64,396.28 1141.64,379 C1141.64,361.72 1153.64,348.88 1171.76,348.88 C1182.32,348.88 1191.44,354.16 1195.88,362.44 L1207.88,355.48 C1200.8,343.24 1187.12,335.44 1171.76,335.44 C1146.2,335.44 1127.84,354.64 1127.84,379 C1127.84,403.36 1146.2,422.56 1171.76,422.56 Z M1266.56,361 L1266.56,369.52 C1262,363.28 1254.92,359.44 1245.56,359.44 C1229.24,359.44 1215.68,373.12 1215.68,391 C1215.68,408.76 1229.24,422.56 1245.56,422.56 C1254.92,422.56 1262,418.72 1266.56,412.36 L1266.56,421 L1279.52,421 L1279.52,361 L1266.56,361 Z M1247.6,410.2 C1236.8,410.2 1228.64,402.16 1228.64,391 C1228.64,379.84 1236.8,371.8 1247.6,371.8 C1258.4,371.8 1266.56,379.84 1266.56,391 C1266.56,402.16 1258.4,410.2 1247.6,410.2 Z M1360.16,359.44 C1352.12,359.44 1345.76,362.68 1341.8,368.92 C1338.32,362.92 1332.56,359.44 1324.76,359.44 C1317.32,359.44 1311.44,362.32 1307.6,368.2 L1307.6,361 L1294.64,361 L1294.64,421 L1307.6,421 L1307.6,387.4 C1307.6,376.48 1313.6,371.56 1320.92,371.56 C1328,371.56 1332.2,376.24 1332.2,384.64 L1332.2,421 L1345.16,421 L1345.16,387.4 C1345.16,376.48 1350.56,371.56 1358.24,371.56 C1365.32,371.56 1369.88,376.24 1369.88,384.64 L1369.88,421 L1382.84,421 L1382.84,383.8 C1382.84,368.8 1373.72,359.44 1360.16,359.44 Z M1406.96,396.52 L1454.72,396.52 C1454.96,394.84 1455.2,392.92 1455.2,391.12 C1455.2,373.84 1442.96,359.44 1425.08,359.44 C1406.24,359.44 1393.4,373.24 1393.4,391 C1393.4,409 1406.24,422.56 1426.04,422.56 C1437.8,422.56 1446.8,417.64 1452.32,409.48 L1441.64,403.24 C1438.76,407.44 1433.36,410.68 1426.16,410.68 C1416.56,410.68 1409,405.88 1406.96,396.52 Z M1406.84,385.96 C1408.64,376.96 1415.24,371.2 1424.96,371.2 C1432.76,371.2 1440.32,375.64 1442.12,385.96 L1406.84,385.96 Z M1479.56,371.08 L1479.56,361 L1466.6,361 L1466.6,421 L1479.56,421 L1479.56,390.76 C1479.56,377.32 1489.52,373.36 1498.04,373.96 L1498.04,359.92 C1490.48,359.92 1483.16,362.92 1479.56,371.08 Z M1555.16,361 L1555.16,369.52 C1550.6,363.28 1543.52,359.44 1534.16,359.44 C1517.84,359.44 1504.28,373.12 1504.28,391 C1504.28,408.76 1517.84,422.56 1534.16,422.56 C1543.52,422.56 1550.6,418.72 1555.16,412.36 L1555.16,421 L1568.12,421 L1568.12,361 L1555.16,361 Z M1536.2,410.2 C1525.4,410.2 1517.24,402.16 1517.24,391 C1517.24,379.84 1525.4,371.8 1536.2,371.8 C1547,371.8 1555.16,379.84 1555.16,391 C1555.16,402.16 1547,410.2 1536.2,410.2 Z M1627.88,407.8 L1627.88,385.12 L1661.48,385.12 L1661.48,372.04 L1627.88,372.04 L1627.88,350.2 L1664.48,350.2 L1664.48,337 L1614.08,337 L1614.08,421 L1665.08,421 L1665.08,407.8 L1627.88,407.8 Z M1689.8,371.08 L1689.8,361 L1676.84,361 L1676.84,421 L1689.8,421 L1689.8,390.76 C1689.8,377.32 1699.76,373.36 1708.28,373.96 L1708.28,359.92 C1700.72,359.92 1693.4,362.92 1689.8,371.08 Z M1765.4,361 L1765.4,369.52 C1760.84,363.28 1753.76,359.44 1744.4,359.44 C1728.08,359.44 1714.52,373.12 1714.52,391 C1714.52,408.76 1728.08,422.56 1744.4,422.56 C1753.76,422.56 1760.84,418.72 1765.4,412.36 L1765.4,421 L1778.36,421 L1778.36,361 L1765.4,361 Z M1746.44,410.2 C1735.64,410.2 1727.48,402.16 1727.48,391 C1727.48,379.84 1735.64,371.8 1746.44,371.8 C1757.24,371.8 1765.4,379.84 1765.4,391 C1765.4,402.16 1757.24,410.2 1746.44,410.2 Z" id="形状结合"></path>
            </g>
        </g>
    </g>
</svg>